<?xml version="1.0" encoding="UTF-8"?>
<svg xmlns="http://www.w3.org/2000/svg" viewBox="0 0 64 64" role="img" aria-label="Cut Buddy saw blade icon">
  <rect width="64" height="64" rx="10" fill="#103047"/>
  <circle cx="32" cy="32" r="21" fill="#1a4d70"/>
  <path fill="#dfb45e" d="M32 9c2.6 0 4.7 2.1 4.7 4.7v1.8a16.8 16.8 0 0 1 6.6 2.8l1.3-1.3a4.7 4.7 0 1 1 6.6 6.6l-1.3 1.3a16.8 16.8 0 0 1 2.8 6.6h1.8a4.7 4.7 0 1 1 0 9.4h-1.8a16.8 16.8 0 0 1-2.8 6.6l1.3 1.3a4.7 4.7 0 0 1-6.6 6.6l-1.3-1.3a16.8 16.8 0 0 1-6.6 2.8v1.8a4.7 4.7 0 0 1-9.4 0v-1.8a16.8 16.8 0 0 1-6.6-2.8l-1.3 1.3a4.7 4.7 0 1 1-6.6-6.6l1.3-1.3a16.8 16.8 0 0 1-2.8-6.6h-1.8a4.7 4.7 0 1 1 0-9.4h1.8a16.8 16.8 0 0 1 2.8-6.6l-1.3-1.3a4.7 4.7 0 0 1 6.6-6.6l1.3 1.3a16.8 16.8 0 0 1 6.6-2.8v-1.8C27.3 11.1 29.4 9 32 9Z"/>
  <circle cx="32" cy="32" r="9" fill="#1a4d70"/>
  <circle cx="32" cy="32" r="4" fill="#7a4f1c"/>
</svg>
